<svg width="100" height="100" viewBox="0 0 100 100" xmlns="http://www.w3.org/2000/svg">
  <g fill="none" fill-rule="evenodd">
    <path d="M76.258 59.59c5.15-15.288-1.822-20.63-7.626-25.686-3.552-3.094-11.69-8.68-11.69-16.892 0-1.114-.898-2.012-2.012-2.012-1.112 0-2.01.903-2.01 2.012V66.18" stroke="#000" stroke-width="10" stroke-linecap="round" stroke-linejoin="round"/>
    <path d="M49.045 56.11c5.76 5.76 5.018 15.838-1.656 22.51-6.675 6.675-16.753 7.416-22.512 1.657-5.76-5.76-5.018-15.837 1.656-22.51 6.673-6.675 16.752-7.416 22.51-1.657" fill="#000"/>
    <path d="M49.045 56.11c5.76 5.76 5.018 15.838-1.656 22.51-6.675 6.675-16.753 7.416-22.512 1.657-5.76-5.76-5.018-15.837 1.656-22.51 6.673-6.675 16.752-7.416 22.51-1.657z" stroke="#000" stroke-width="10" stroke-linecap="round" stroke-linejoin="round"/>
    <path d="M39.68 81.6c-2.3 1.085-5.09 1.29-7.015-.646-1.473-1.48-1.128-3.637-.656-5.486.34-1.335.75-2.656 1.125-3.982.397-1.403 1.265-3.38.714-4.777-.166-.422-.36-.637-.775-.81-.315-.133-.994.003-1.23-.172-.508-.375-.162-1.218.164-1.574 1.495-1.632 5.45-1.24 6.918.215 2.297 2.274.314 6.62-.428 9.248-.416 1.474-1.452 3.76-.712 5.175.242.464.616.624 1.115.735.61.136 1.254-.337 1.748-.223 1.54.357-.396 2.027-.97 2.295-1.09.514 1.26-.59 0 0M42.335 57.54c0 1.97-1.598 3.57-3.57 3.57-1.97 0-3.57-1.6-3.57-3.57 0-1.972 1.6-3.57 3.57-3.57 1.972 0 3.57 1.598 3.57 3.57" fill="#FFF"/>
  </g>
</svg>
