<?xml version="1.0" encoding="UTF-8" standalone="no"?>
<svg width="100px" height="100px" viewBox="0 0 100 100" version="1.1" xmlns="http://www.w3.org/2000/svg" xmlns:xlink="http://www.w3.org/1999/xlink">
    <!-- Generator: Sketch 3.6.1 (26313) - http://www.bohemiancoding.com/sketch -->
    <title>icon</title>
    <desc>Created with Sketch.</desc>
    <defs>
        <filter x="-50%" y="-50%" width="200%" height="200%" filterUnits="objectBoundingBox" id="filter-1">
            <feOffset dx="0" dy="1" in="SourceAlpha" result="shadowOffsetOuter1"></feOffset>
            <feGaussianBlur stdDeviation="0" in="shadowOffsetOuter1" result="shadowBlurOuter1"></feGaussianBlur>
            <feColorMatrix values="0 0 0 0 0   0 0 0 0 0   0 0 0 0 0  0 0 0 0.238841712 0" in="shadowBlurOuter1" type="matrix" result="shadowMatrixOuter1"></feColorMatrix>
            <feMerge>
                <feMergeNode in="shadowMatrixOuter1"></feMergeNode>
                <feMergeNode in="SourceGraphic"></feMergeNode>
            </feMerge>
        </filter>
    </defs>
    <g id="Page-1" stroke="none" stroke-width="1" fill="none" fill-rule="evenodd">
        <g id="icon">
            <rect id="Rectangle-1-Copy" fill="#FFFFFF" x="0" y="0" width="100" height="100" rx="6"></rect>
            <path d="M71.8951,31.1344 C71.4331,30.7314 70.8981,30.2884 70.3151,29.8064 C66.9711,27.0434 61.9201,22.8674 61.9201,18.0124 C61.9201,14.1464 58.7751,11.0004 54.9091,11.0004 C51.0431,11.0004 47.8981,14.1464 47.8981,18.0124 L47.8981,50.2344 C40.2141,46.4094 30.0341,48.1724 22.9771,55.2304 C14.3651,63.8424 13.6231,77.1134 21.3211,84.8124 C24.8881,88.3794 29.6501,90.1334 34.5911,90.1334 C40.3161,90.1334 46.2811,87.7784 50.9041,83.1564 C55.3121,78.7484 57.6431,73.1204 57.8511,67.6434 C57.8661,67.4884 57.8981,67.3384 57.8981,67.1794 L57.8981,31.9054 C60.0051,34.2574 62.2631,36.1254 63.9441,37.5144 C64.4541,37.9364 64.9231,38.3224 65.3271,38.6744 L65.9371,39.2044 C71.4321,43.9674 75.4021,47.4084 71.4991,58.9944 C70.6171,61.6114 72.0241,64.4484 74.6401,65.3294 C77.2531,66.2114 80.0931,64.8054 80.9751,62.1884 C87.0201,44.2454 78.2751,36.6644 72.4871,31.6484 L71.8951,31.1344 Z" id="Fill-1" stroke-opacity="0.113309556" stroke="#FFFFFF" stroke-width="2" fill="#000000"></path>
            <path d="M38.7448,54.9696 C36.7738,54.9696 35.1748,56.5676 35.1748,58.5396 C35.1748,60.5106 36.7738,62.1086 38.7448,62.1086 C40.7158,62.1086 42.3148,60.5106 42.3148,58.5396 C42.3148,56.5676 40.7158,54.9696 38.7448,54.9696 M40.6308,80.3056 C40.1368,80.1906 39.4938,80.6646 38.8828,80.5286 C38.3828,80.4176 38.0098,80.2576 37.7678,79.7936 C37.0278,78.3786 38.0638,76.0926 38.4798,74.6186 C39.2218,71.9906 41.2048,67.6446 38.9088,65.3696 C37.4408,63.9156 33.4848,63.5226 31.9888,65.1536 C31.6628,65.5096 31.3168,66.3536 31.8238,66.7286 C32.0608,66.9036 32.7398,66.7666 33.0548,66.8986 C33.4708,67.0736 33.6638,67.2886 33.8288,67.7096 C34.3798,69.1076 33.5118,71.0836 33.1148,72.4866 C32.7398,73.8116 32.3298,75.1326 31.9888,76.4676 C31.5168,78.3166 31.1718,80.4736 32.6448,81.9546 C34.5698,83.8916 37.3608,83.6856 39.6608,82.6006 C40.2338,82.3326 42.1688,80.6616 40.6308,80.3056" id="Fill-4" fill="#FFFFFF" filter="url(#filter-1)"></path>
        </g>
    </g>
</svg>